<svg width="1564" height="749" viewBox="0 0 1564 749" fill="none" xmlns="http://www.w3.org/2000/svg">
<g clip-path="url(#clip0_2019_91)">
<path d="M1303.7 20.2C1301.47 20.2 1299.53 19.4533 1297.86 17.96L1299.34 16.2C1300.74 17.4133 1302.21 18.02 1303.76 18.02C1304.52 18.02 1305.12 17.86 1305.56 17.54C1306.01 17.2067 1306.24 16.7667 1306.24 16.22C1306.24 15.7 1306.03 15.2867 1305.6 14.98C1305.17 14.66 1304.33 14.3533 1303.08 14.06C1301.45 13.6733 1300.27 13.1867 1299.52 12.6C1298.79 12 1298.42 11.0867 1298.42 9.86001C1298.42 8.66001 1298.87 7.68668 1299.76 6.94001C1300.65 6.18001 1301.8 5.80001 1303.2 5.80001C1305.12 5.80001 1306.81 6.38668 1308.28 7.56001L1306.96 9.42001C1305.67 8.46001 1304.4 7.98001 1303.16 7.98001C1302.45 7.98001 1301.89 8.14001 1301.48 8.46001C1301.08 8.78001 1300.88 9.18668 1300.88 9.68001C1300.88 10.2267 1301.1 10.6533 1301.54 10.96C1301.99 11.2533 1302.88 11.56 1304.2 11.88C1305.75 12.2533 1306.88 12.7533 1307.6 13.38C1308.33 14.0067 1308.7 14.8867 1308.7 16.02C1308.7 17.3133 1308.24 18.3333 1307.32 19.08C1306.4 19.8267 1305.19 20.2 1303.7 20.2ZM1317.33 20.22C1315.48 20.22 1314.02 19.6933 1312.95 18.64C1311.9 17.5867 1311.37 16.06 1311.37 14.06V6.00001H1313.83V13.96C1313.83 15.24 1314.15 16.2267 1314.77 16.92C1315.4 17.6133 1316.27 17.96 1317.37 17.96C1318.48 17.96 1319.34 17.6267 1319.95 16.96C1320.58 16.2933 1320.89 15.3267 1320.89 14.06V6.00001H1323.35V13.94C1323.35 15.98 1322.82 17.54 1321.75 18.62C1320.69 19.6867 1319.21 20.22 1317.33 20.22ZM1326.73 20V6.00001H1329.35L1333.61 12.62L1337.87 6.00001H1340.49V20H1338.03V9.96001L1333.61 16.56H1333.53L1329.15 10V20H1326.73ZM1344.23 20V6.00001H1346.69V20H1344.23ZM1350.44 20V6.00001H1360.86V8.24001H1352.9V12.06H1359.96V14.3H1352.9V20H1350.44ZM1368.57 22.82C1364.87 20.7933 1363.03 17.94 1363.03 14.26C1363.03 10.58 1364.87 7.72668 1368.57 5.70001L1369.63 7.32001C1368.19 8.26668 1367.13 9.29334 1366.45 10.4C1365.78 11.5067 1365.45 12.7933 1365.45 14.26C1365.45 15.7267 1365.78 17.0133 1366.45 18.12C1367.13 19.2267 1368.19 20.2533 1369.63 21.2L1368.57 22.82ZM1378.27 20.24C1376.24 20.24 1374.55 19.5467 1373.19 18.16C1371.83 16.76 1371.15 15.04 1371.15 13C1371.15 10.9733 1371.83 9.26001 1373.19 7.86001C1374.55 6.46001 1376.28 5.76001 1378.37 5.76001C1379.58 5.76001 1380.61 5.94668 1381.45 6.32001C1382.3 6.69334 1383.1 7.23334 1383.85 7.94001L1382.27 9.76001C1381.02 8.60001 1379.71 8.02001 1378.35 8.02001C1377.02 8.02001 1375.91 8.50001 1375.03 9.46001C1374.16 10.42 1373.73 11.6 1373.73 13C1373.73 14.3867 1374.17 15.5667 1375.05 16.54C1375.93 17.5 1377.03 17.98 1378.35 17.98C1379.15 17.98 1379.86 17.8333 1380.47 17.54C1381.08 17.2333 1381.72 16.7733 1382.37 16.16L1383.95 17.76C1383.16 18.5867 1382.33 19.2067 1381.45 19.62C1380.57 20.0333 1379.51 20.24 1378.27 20.24ZM1390.95 20.24C1388.73 20.24 1386.94 19.42 1385.59 17.78L1387.31 16.18C1388.35 17.4067 1389.58 18.02 1390.99 18.02C1391.7 18.02 1392.28 17.8267 1392.73 17.44C1393.19 17.04 1393.41 16.5133 1393.41 15.86C1393.41 15.18 1393.12 14.6533 1392.53 14.28C1391.96 13.8933 1391.18 13.7 1390.19 13.7H1389.05L1388.65 12.16L1392.43 8.14001H1386.37V6.00001H1395.63V7.84001L1391.73 11.84C1392.96 12.0133 1393.95 12.4267 1394.71 13.08C1395.47 13.72 1395.85 14.6333 1395.85 15.82C1395.85 17.1133 1395.39 18.1733 1394.47 19C1393.57 19.8267 1392.39 20.24 1390.95 20.24ZM1398.56 12.18V9.44001H1401.22V12.18H1398.56ZM1398.56 20V17.26H1401.22V20H1398.56ZM1410.98 20.24C1408.96 20.24 1407.26 19.5467 1405.9 18.16C1404.54 16.76 1403.86 15.04 1403.86 13C1403.86 10.9733 1404.54 9.26001 1405.9 7.86001C1407.26 6.46001 1408.99 5.76001 1411.08 5.76001C1412.3 5.76001 1413.32 5.94668 1414.16 6.32001C1415.02 6.69334 1415.82 7.23334 1416.56 7.94001L1414.98 9.76001C1413.73 8.60001 1412.42 8.02001 1411.06 8.02001C1409.73 8.02001 1408.62 8.50001 1407.74 9.46001C1406.88 10.42 1406.44 11.6 1406.44 13C1406.44 14.3867 1406.88 15.5667 1407.76 16.54C1408.64 17.5 1409.74 17.98 1411.06 17.98C1411.86 17.98 1412.57 17.8333 1413.18 17.54C1413.8 17.2333 1414.43 16.7733 1415.08 16.16L1416.66 17.76C1415.88 18.5867 1415.04 19.2067 1414.16 19.62C1413.28 20.0333 1412.22 20.24 1410.98 20.24ZM1421.01 20V8.40001L1418.49 9.10001L1417.97 7.10001L1421.73 5.90001H1423.45V20H1421.01ZM1426.36 20V18.06L1431.18 13.96C1432.17 13.1333 1432.85 12.4533 1433.22 11.92C1433.61 11.3733 1433.8 10.7933 1433.8 10.18C1433.8 9.51334 1433.59 8.98668 1433.16 8.60001C1432.73 8.20001 1432.19 8.00001 1431.54 8.00001C1430.93 8.00001 1430.37 8.16668 1429.88 8.50001C1429.4 8.83334 1428.87 9.36668 1428.3 10.1L1426.56 8.74001C1427.28 7.72668 1428.02 6.98668 1428.78 6.52001C1429.55 6.04001 1430.53 5.80001 1431.72 5.80001C1433.09 5.80001 1434.21 6.18668 1435.06 6.96001C1435.91 7.73334 1436.34 8.75334 1436.34 10.02C1436.34 10.5667 1436.27 11.06 1436.14 11.5C1436.01 11.9267 1435.77 12.3667 1435.42 12.82C1435.09 13.26 1434.72 13.6667 1434.32 14.04C1433.93 14.4 1433.39 14.8667 1432.7 15.44L1429.82 17.84H1436.48V20H1426.36ZM1438.58 22.9L1438.32 21.88C1439.47 21.6533 1440.04 21.1 1440.04 20.22C1440.04 20.1933 1440.04 20.1533 1440.02 20.1C1440.02 20.06 1440.02 20.0267 1440.02 20H1439V17.26H1441.66V19.58C1441.66 20.66 1441.41 21.46 1440.9 21.98C1440.4 22.5133 1439.62 22.82 1438.58 22.9ZM1443.25 11.66L1442.99 10.62C1444.14 10.42 1444.71 9.86668 1444.71 8.96001C1444.71 8.93334 1444.71 8.90001 1444.69 8.86001C1444.69 8.80668 1444.69 8.76668 1444.69 8.74001H1443.67V6.00001H1446.33V8.34001C1446.33 9.42001 1446.08 10.2267 1445.57 10.76C1445.07 11.28 1444.29 11.58 1443.25 11.66ZM1448.63 11.66L1448.37 10.62C1449.51 10.42 1450.09 9.86668 1450.09 8.96001C1450.09 8.93334 1450.08 8.90001 1450.07 8.86001C1450.07 8.80668 1450.07 8.76668 1450.07 8.74001H1449.05V6.00001H1451.71V8.34001C1451.71 9.42001 1451.45 10.2267 1450.95 10.76C1450.44 11.28 1449.67 11.58 1448.63 11.66ZM1454.82 18.46V16.16L1461.96 12.98L1454.82 9.78001V7.46001L1464.36 11.88V14.04L1454.82 18.46ZM1467.87 20L1474.15 8.16001H1467.11V6.00001H1476.95V7.86001L1470.63 20H1467.87ZM1484.77 20.24C1482.95 20.24 1481.49 19.5533 1480.37 18.18C1479.25 16.7933 1478.69 15.0667 1478.69 13C1478.69 10.96 1479.25 9.24668 1480.39 7.86001C1481.53 6.46001 1483.01 5.76001 1484.81 5.76001C1486.61 5.76001 1488.07 6.45334 1489.19 7.84001C1490.32 9.22668 1490.89 10.9467 1490.89 13C1490.89 15.04 1490.31 16.76 1489.17 18.16C1488.03 19.5467 1486.57 20.24 1484.77 20.24ZM1482.21 16.58C1482.87 17.54 1483.74 18.02 1484.81 18.02C1485.87 18.02 1486.73 17.5467 1487.37 16.6C1488.02 15.64 1488.35 14.44 1488.35 13C1488.35 11.5867 1488.01 10.4 1487.35 9.44001C1486.68 8.46668 1485.82 7.98001 1484.77 7.98001C1483.7 7.98001 1482.84 8.46001 1482.19 9.42001C1481.55 10.3667 1481.23 11.56 1481.23 13C1481.23 14.4133 1481.55 15.6067 1482.21 16.58ZM1492.57 22.9L1492.31 21.88C1493.46 21.6533 1494.03 21.1 1494.03 20.22C1494.03 20.1933 1494.02 20.1533 1494.01 20.1C1494.01 20.06 1494.01 20.0267 1494.01 20H1492.99V17.26H1495.65V19.58C1495.65 20.66 1495.4 21.46 1494.89 21.98C1494.38 22.5133 1493.61 22.82 1492.57 22.9ZM1503.83 20.24C1502.02 20.24 1500.55 19.5533 1499.43 18.18C1498.31 16.7933 1497.75 15.0667 1497.75 13C1497.75 10.96 1498.32 9.24668 1499.45 7.86001C1500.6 6.46001 1502.07 5.76001 1503.87 5.76001C1505.67 5.76001 1507.13 6.45334 1508.25 7.84001C1509.38 9.22668 1509.95 10.9467 1509.95 13C1509.95 15.04 1509.38 16.76 1508.23 18.16C1507.1 19.5467 1505.63 20.24 1503.83 20.24ZM1501.27 16.58C1501.94 17.54 1502.8 18.02 1503.87 18.02C1504.94 18.02 1505.79 17.5467 1506.43 16.6C1507.08 15.64 1507.41 14.44 1507.41 13C1507.41 11.5867 1507.08 10.4 1506.41 9.44001C1505.74 8.46668 1504.88 7.98001 1503.83 7.98001C1502.76 7.98001 1501.9 8.46001 1501.25 9.42001C1500.61 10.3667 1500.29 11.56 1500.29 13C1500.29 14.4133 1500.62 15.6067 1501.27 16.58ZM1518.3 20.24C1516.49 20.24 1515.02 19.5533 1513.9 18.18C1512.78 16.7933 1512.22 15.0667 1512.22 13C1512.22 10.96 1512.79 9.24668 1513.92 7.86001C1515.07 6.46001 1516.54 5.76001 1518.34 5.76001C1520.14 5.76001 1521.6 6.45334 1522.72 7.84001C1523.86 9.22668 1524.42 10.9467 1524.42 13C1524.42 15.04 1523.85 16.76 1522.7 18.16C1521.57 19.5467 1520.1 20.24 1518.3 20.24ZM1515.74 16.58C1516.41 17.54 1517.28 18.02 1518.34 18.02C1519.41 18.02 1520.26 17.5467 1520.9 16.6C1521.56 15.64 1521.88 14.44 1521.88 13C1521.88 11.5867 1521.55 10.4 1520.88 9.44001C1520.22 8.46668 1519.36 7.98001 1518.3 7.98001C1517.24 7.98001 1516.38 8.46001 1515.72 9.42001C1515.08 10.3667 1514.76 11.56 1514.76 13C1514.76 14.4133 1515.09 15.6067 1515.74 16.58ZM1532.77 20.24C1530.96 20.24 1529.49 19.5533 1528.37 18.18C1527.25 16.7933 1526.69 15.0667 1526.69 13C1526.69 10.96 1527.26 9.24668 1528.39 7.86001C1529.54 6.46001 1531.01 5.76001 1532.81 5.76001C1534.61 5.76001 1536.07 6.45334 1537.19 7.84001C1538.33 9.22668 1538.89 10.9467 1538.89 13C1538.89 15.04 1538.32 16.76 1537.17 18.16C1536.04 19.5467 1534.57 20.24 1532.77 20.24ZM1530.21 16.58C1530.88 17.54 1531.75 18.02 1532.81 18.02C1533.88 18.02 1534.73 17.5467 1535.37 16.6C1536.03 15.64 1536.35 14.44 1536.35 13C1536.35 11.5867 1536.02 10.4 1535.35 9.44001C1534.69 8.46668 1533.83 7.98001 1532.77 7.98001C1531.71 7.98001 1530.85 8.46001 1530.19 9.42001C1529.55 10.3667 1529.23 11.56 1529.23 13C1529.23 14.4133 1529.56 15.6067 1530.21 16.58ZM1541.07 11.66L1540.81 10.62C1541.95 10.42 1542.53 9.86668 1542.53 8.96001C1542.53 8.93334 1542.52 8.90001 1542.51 8.86001C1542.51 8.80668 1542.51 8.76668 1542.51 8.74001H1541.49V6.00001H1544.15V8.34001C1544.15 9.42001 1543.89 10.2267 1543.39 10.76C1542.88 11.28 1542.11 11.58 1541.07 11.66ZM1546.44 11.66L1546.18 10.62C1547.33 10.42 1547.9 9.86668 1547.9 8.96001C1547.9 8.93334 1547.89 8.90001 1547.88 8.86001C1547.88 8.80668 1547.88 8.76668 1547.88 8.74001H1546.86V6.00001H1549.52V8.34001C1549.52 9.42001 1549.27 10.2267 1548.76 10.76C1548.25 11.28 1547.48 11.58 1546.44 11.66ZM1552.79 22.82L1551.73 21.2C1553.17 20.2533 1554.22 19.2267 1554.89 18.12C1555.57 17.0133 1555.91 15.7267 1555.91 14.26C1555.91 12.7933 1555.57 11.5067 1554.89 10.4C1554.22 9.29334 1553.17 8.26668 1551.73 7.32001L1552.79 5.70001C1556.48 7.74001 1558.33 10.5933 1558.33 14.26C1558.33 17.9267 1556.48 20.78 1552.79 22.82Z" fill="#97C3AB"/>
<path d="M394.124 703.327L392.065 684.977L394.435 683.609L409.296 694.567L406.594 696.127L403.091 693.466L396.211 697.438L396.742 701.815L394.124 703.327ZM395.838 694.632L400.847 691.74L394.972 687.373L395.838 694.632ZM414.582 691.653L400.074 680.492L402.901 678.86L413.742 687.51L411.651 673.808L414.415 672.212L416.827 690.357L414.582 691.653ZM425.309 685.321L416.909 670.772L427.697 664.544L429.017 666.83L420.786 671.582L422.97 675.365L430.265 671.153L431.585 673.44L424.29 677.652L426.546 681.559L434.881 676.747L436.201 679.033L425.309 685.321ZM439.233 677.282L430.833 662.733L437.318 658.989C439.009 658.013 440.576 657.672 442.02 657.965C443.456 658.244 444.582 659.091 445.398 660.504C446.062 661.654 446.298 662.783 446.107 663.892C445.907 664.986 445.362 665.994 444.471 666.914L451.58 670.154L448.566 671.894L442.021 668.911L438.862 670.735L441.79 675.806L439.233 677.282ZM437.554 668.469L441.295 666.309C442.21 665.781 442.809 665.14 443.094 664.384C443.378 663.629 443.3 662.87 442.86 662.108C442.412 661.332 441.805 660.888 441.038 660.777C440.272 660.665 439.41 660.885 438.454 661.437L434.734 663.585L437.554 668.469ZM453.006 669.33L450.948 650.981L453.318 649.613L468.179 660.57L465.477 662.13L461.974 659.47L455.094 663.442L455.625 667.818L453.006 669.33ZM454.721 660.636L459.73 657.744L453.855 653.377L454.721 660.636ZM476.826 655.911C474.581 657.207 472.351 657.552 470.135 656.947C467.926 656.32 466.193 654.918 464.937 652.743C463.737 650.665 463.419 648.483 463.985 646.198C464.564 643.905 465.934 642.135 468.096 640.887C469.315 640.183 470.451 639.749 471.502 639.586C472.545 639.408 473.653 639.424 474.827 639.633L474.322 642.502C473.408 642.328 472.568 642.296 471.8 642.407C471.038 642.495 470.221 642.792 469.348 643.296C468.018 644.064 467.188 645.217 466.857 646.757C466.54 648.288 466.794 649.768 467.618 651.195C468.49 652.705 469.667 653.688 471.15 654.144C472.624 654.586 474.096 654.383 475.565 653.535C476.923 652.751 477.882 651.708 478.441 650.406L476.869 647.683L473.149 649.831L471.865 647.607L478.059 644.031L481.587 650.141C480.699 652.668 479.112 654.591 476.826 655.911ZM486.08 650.235L477.68 635.686L488.467 629.458L489.787 631.745L481.557 636.497L483.741 640.279L491.036 636.067L492.356 638.354L485.061 642.566L487.317 646.473L495.651 641.661L496.971 643.947L486.08 650.235ZM506.892 642.127C501.838 642.237 498.207 640.38 495.999 636.555C493.791 632.731 493.998 628.658 496.62 624.335L498.694 625.383C497.765 627.231 497.28 628.934 497.237 630.492C497.208 632.042 497.634 633.579 498.514 635.103C499.394 636.627 500.512 637.765 501.869 638.515C503.24 639.257 504.957 639.688 507.022 639.807L506.892 642.127ZM509.158 636.911L500.758 622.362L507.285 618.594C508.961 617.626 510.477 617.324 511.832 617.687C512.859 617.962 513.657 618.591 514.225 619.575C515.057 621.016 514.988 622.497 514.019 624.018C516.321 623.557 517.972 624.193 518.972 625.925C519.708 627.199 519.791 628.463 519.221 629.716C518.651 630.969 517.541 632.071 515.892 633.023L509.158 636.911ZM506.813 627.041L510.305 625.025C511.15 624.537 511.719 623.987 512.012 623.375C512.311 622.74 512.269 622.09 511.885 621.425C511.549 620.843 511.067 620.521 510.439 620.458C509.804 620.382 509.078 620.58 508.26 621.052L504.581 623.176L506.813 627.041ZM510.365 633.194L514.605 630.746C515.492 630.234 516.078 629.664 516.363 629.038C516.662 628.404 516.619 627.754 516.235 627.089C515.483 625.786 514.109 625.711 512.114 626.863L508.061 629.203L510.365 633.194ZM523.306 628.743L522.142 626.727L524.691 619.574C525.22 618.123 525.519 617.008 525.587 616.23C525.661 615.43 525.514 614.711 525.146 614.074C524.746 613.381 524.208 612.962 523.533 612.816C522.849 612.656 522.168 612.772 521.489 613.164C520.852 613.532 520.377 614.038 520.064 614.68C519.765 615.314 519.538 616.185 519.382 617.291L516.758 616.921C516.898 615.436 517.223 614.223 517.733 613.282C518.249 612.319 519.123 611.482 520.356 610.77C521.783 609.946 523.172 609.68 524.523 609.971C525.874 610.263 526.929 611.067 527.689 612.384C528.017 612.952 528.244 613.504 528.37 614.042C528.487 614.565 528.502 615.166 528.413 615.845C528.331 616.503 528.194 617.145 528.002 617.773C527.816 618.379 527.535 619.188 527.159 620.2L525.606 624.422L532.527 620.426L533.823 622.671L523.306 628.743ZM539.229 616.613L536.937 612.643L532.946 614.947L531.626 612.66L535.617 610.356L533.325 606.386L535.694 605.018L537.986 608.988L541.977 606.684L543.297 608.971L539.306 611.275L541.598 615.245L539.229 616.613ZM550.2 613.216L541.8 598.667L547.224 595.535C549.497 594.223 551.754 593.844 553.995 594.397C556.228 594.937 557.948 596.253 559.156 598.345C560.356 600.424 560.629 602.576 559.974 604.801C559.333 607.019 557.883 608.78 555.624 610.084L550.2 613.216ZM551.412 609.412L554.28 607.756C555.791 606.884 556.746 605.723 557.147 604.272C557.539 602.808 557.315 601.348 556.475 599.893C555.643 598.452 554.495 597.536 553.031 597.143C551.566 596.751 550.079 596.991 548.568 597.863L545.7 599.519L551.412 609.412ZM565.606 604.321L564.442 602.305L566.991 595.152C567.52 593.701 567.819 592.586 567.887 591.808C567.961 591.008 567.814 590.289 567.446 589.652C567.046 588.959 566.508 588.54 565.833 588.394C565.149 588.234 564.468 588.35 563.789 588.742C563.152 589.11 562.677 589.616 562.364 590.258C562.065 590.892 561.838 591.763 561.682 592.869L559.058 592.499C559.198 591.014 559.523 589.801 560.033 588.86C560.548 587.898 561.423 587.06 562.656 586.348C564.083 585.524 565.472 585.258 566.823 585.55C568.174 585.841 569.229 586.645 569.989 587.962C570.317 588.53 570.544 589.082 570.669 589.62C570.787 590.143 570.802 590.744 570.713 591.424C570.631 592.081 570.494 592.723 570.302 593.351C570.116 593.957 569.835 594.766 569.459 595.778L567.906 600L574.827 596.004L576.123 598.249L565.606 604.321ZM581.125 599.268L579.052 598.221C579.98 596.373 580.459 594.674 580.488 593.124C580.53 591.566 580.112 590.025 579.232 588.501C578.352 586.976 577.226 585.843 575.856 585.101C574.499 584.351 572.788 583.916 570.724 583.796L570.853 581.477C575.916 581.381 579.547 583.238 581.747 587.049C583.947 590.859 583.74 594.932 581.125 599.268Z" fill="#BFDBCC"/>
<path d="M651.182 18.4088L655.771 10.9219L654.486 10.5423L655.612 8.70619L656.897 9.08576L657.333 8.31763C658.438 6.36404 660.033 5.69506 662.117 6.31068C662.897 6.54107 663.528 6.85255 664.01 7.24512L662.92 9.02943C662.494 8.68131 662.051 8.43927 661.591 8.30331C660.734 8.05026 660.038 8.35909 659.503 9.22981L659.18 9.75992L661.98 10.587L660.854 12.4232L658.092 11.6074L653.503 19.0943L651.182 18.4088ZM662.164 24.6136C660.412 22.0247 659.924 19.4196 660.698 16.7982C661.306 14.7395 662.511 13.0588 664.314 11.7561C666.134 10.4444 668.41 9.65694 671.143 9.39369L671.477 11.3692C669.218 11.6751 667.371 12.3739 665.937 13.4656C664.502 14.5573 663.556 15.8767 663.099 17.424C662.555 19.2653 662.86 21.3157 664.014 23.5751L662.164 24.6136ZM665.758 22.7139L672.476 18.9631L671.569 13.4192L674.062 14.1556L674.544 17.8221L678.493 15.4643L681.294 16.2914L674.882 19.924L675.79 25.6768L673.296 24.9403L672.801 21.0402L668.578 23.5466L665.758 22.7139ZM676.542 28.7976L676.208 26.8221C678.467 26.5162 680.314 25.8174 681.748 24.7257C683.183 23.634 684.129 22.3146 684.586 20.7673C685.134 18.9132 684.82 16.8673 683.646 14.6297L685.521 13.5777C687.273 16.1666 687.761 18.7717 686.987 21.3931C686.379 23.4518 685.165 25.1371 683.346 26.4487C681.539 27.7642 679.271 28.5472 676.542 28.7976ZM696.636 23.0544L697.846 21.0761L706.823 23.7274L705.613 25.7057L696.636 23.0544ZM693.935 27.4701L695.145 25.4918L704.122 28.1431L702.912 30.1214L693.935 27.4701ZM710.161 35.8286L717.733 23.4671L720.13 24.1752L720.595 31.2152L728.225 26.5659L730.929 27.3647L723.357 39.7263L720.96 39.0181L726.393 30.1541L718.616 34.7389L718.539 34.7163L717.923 27.6941L712.52 36.5254L710.161 35.8286ZM726.947 40.7866L734.519 28.4251L736.897 29.1276L729.326 41.4891L726.947 40.7866ZM732.901 42.545L740.472 30.1835L742.659 30.8293L744.401 41.6665L749.775 32.9311L752.096 33.6166L744.524 45.9781L742.549 45.3946L740.733 34.2436L735.241 43.2361L732.901 42.545ZM751.625 51.0366C749.873 48.4477 749.384 45.8426 750.159 43.2212C750.767 41.1625 751.972 39.4817 753.775 38.1791C755.594 36.8674 757.871 36.0799 760.604 35.8167L760.938 37.7922C758.679 38.0981 756.832 38.7969 755.397 39.8886C753.963 40.9802 753.017 42.2997 752.56 43.847C752.016 45.6883 752.321 47.7387 753.475 49.9981L751.625 51.0366ZM756.427 49.4937L763.999 37.1322L773.858 40.0441L772.659 41.9841L765.16 39.769L763.183 43.0015L769.839 44.9673L768.646 46.8881L761.99 44.9222L759.966 48.245L767.581 50.4941L766.382 52.434L756.427 49.4937ZM768.207 52.9731L769.292 51.208L777.964 48.1806C778.832 47.8806 779.496 47.5624 779.956 47.2258C780.417 46.8892 780.718 46.4844 780.857 46.0112C781.008 45.4998 780.942 45.0422 780.658 44.6386C780.387 44.2387 779.938 43.9462 779.311 43.7612C778.212 43.4364 776.908 43.6839 775.401 44.5039L774.372 42.5524C776.281 41.4063 778.169 41.109 780.036 41.6604C781.34 42.0457 782.297 42.6897 782.906 43.5926C783.519 44.4827 783.671 45.452 783.361 46.5006C783.123 47.3062 782.676 47.9734 782.019 48.5024C781.363 49.0314 780.361 49.528 779.014 49.9922L772.962 52.1252L779.234 53.9778L778.066 55.885L768.207 52.9731ZM784.797 49.7192L786.283 47.301L788.834 48.0545L787.348 50.4726L784.797 49.7192ZM780.568 56.624L782.054 54.2059L784.605 54.9593L783.119 57.3775L780.568 56.624ZM786.397 58.3457L793.969 45.9841L803.828 48.8961L802.629 50.836L795.13 48.6209L793.153 51.8534L799.809 53.8192L798.616 55.74L791.96 53.7742L789.936 57.0969L797.551 59.346L796.352 61.2859L786.397 58.3457ZM803.447 63.6109C802.45 63.3163 801.576 62.815 800.826 62.1068C800.08 61.3859 799.578 60.6122 799.322 59.7857L801.412 58.9224C802.008 60.294 802.958 61.1725 804.262 61.5577C805.183 61.8296 806.019 61.7986 806.771 61.4646C807.536 61.1344 808.024 60.6113 808.236 59.8952C808.417 59.2814 808.322 58.7109 807.949 58.1838C807.589 57.6604 806.981 57.2722 806.124 57.0192C805.434 56.8152 804.65 56.7854 803.773 56.9296L802.84 55.5696L806.823 49.7807L814.706 52.1091L813.494 54.0242L807.759 52.3303L805.831 55.1182C806.454 55.0798 807.059 55.1474 807.648 55.3212C808.901 55.6913 809.813 56.3432 810.386 57.2769C810.962 58.1978 811.08 59.2336 810.74 60.3845C810.34 61.7399 809.452 62.7431 808.078 63.3939C806.705 64.0447 805.161 64.117 803.447 63.6109ZM809.309 68.0116L808.975 66.0361C811.234 65.7302 813.081 65.0314 814.516 63.9397C815.951 62.8481 816.896 61.5286 817.353 59.9813C817.901 58.1272 817.588 56.0813 816.413 53.8437L818.288 52.7917C820.04 55.3806 820.529 57.9857 819.755 60.6071C819.146 62.6659 817.933 64.3511 816.113 65.6628C814.307 66.9782 812.039 67.7612 809.309 68.0116Z" fill="#BFDBCC"/>
<path d="M747.17 706.091C744.638 705.343 742.987 703.944 742.216 701.895L744.436 700.945C745.174 702.54 746.336 703.571 747.922 704.039C748.677 704.262 749.348 704.273 749.936 704.071C750.523 703.869 750.899 703.494 751.061 702.944C751.182 702.535 751.105 702.136 750.83 701.749C750.571 701.353 750.024 700.83 749.187 700.18C748.172 699.379 747.456 698.626 747.04 697.919C746.623 697.212 746.543 696.424 746.8 695.554C747.166 694.314 747.957 693.449 749.172 692.96C750.391 692.458 751.735 692.424 753.206 692.858C755.277 693.47 756.722 694.627 757.54 696.328L755.415 697.452C754.669 696.119 753.669 695.268 752.416 694.898C751.661 694.675 751.001 694.675 750.435 694.897C749.885 695.11 749.541 695.453 749.401 695.926C749.276 696.348 749.351 696.753 749.626 697.14C749.918 697.518 750.51 698.054 751.403 698.749C752.387 699.512 753.073 700.25 753.461 700.962C753.865 701.666 753.936 702.458 753.676 703.341C753.298 704.619 752.481 705.504 751.223 705.995C749.979 706.489 748.628 706.521 747.17 706.091ZM759.943 709.884C758.383 709.423 757.279 708.666 756.63 707.613C755.995 706.563 755.879 705.354 756.284 703.986C756.472 703.346 756.784 702.667 757.219 701.947L761.189 695.425L763.549 696.122L759.386 702.942C759.115 703.39 758.906 703.863 758.758 704.362C758.528 705.142 758.586 705.841 758.932 706.457C759.278 707.074 759.905 707.516 760.813 707.784C762.795 708.37 764.503 707.484 765.936 705.127L770.243 698.099L772.602 698.796L768.091 706.159C765.958 709.617 763.242 710.858 759.943 709.884ZM768.362 712.141L775.934 699.78L778.332 700.488L778.797 707.528L786.426 702.879L789.131 703.677L781.559 716.039L779.161 715.331L784.595 706.467L776.817 711.052L776.741 711.029L776.125 704.007L770.722 712.838L768.362 712.141ZM788.66 721.098C786.908 718.509 786.42 715.904 787.194 713.282C787.802 711.223 789.007 709.543 790.81 708.24C792.63 706.928 794.906 706.141 797.639 705.878L797.973 707.853C795.714 708.159 793.867 708.858 792.432 709.95C790.998 711.041 790.052 712.361 789.595 713.908C789.051 715.749 789.356 717.8 790.51 720.059L788.66 721.098ZM792.139 719.164L805.666 708.457L807.929 709.125L806.218 723.322L803.801 722.608L804.24 719.214L797.892 717.339L794.69 719.917L792.139 719.164ZM799.948 715.673L804.57 717.038L805.31 711.355L799.948 715.673ZM809.53 724.3L815.73 714.182L812.986 714.081L813.549 712.036L817.859 712.058L819.489 712.54L811.87 724.992L809.53 724.3ZM820.379 725.294L822.439 721.92L818.756 720.832L819.955 718.892L823.638 719.98L825.679 716.599L827.885 717.251L825.824 720.626L829.507 721.713L828.309 723.653L824.626 722.565L822.566 725.94L820.379 725.294ZM828.246 729.829L835.818 717.467L840.959 718.985C842.378 719.404 843.376 720.026 843.953 720.85C844.534 721.661 844.682 722.546 844.399 723.505C844.135 724.4 843.634 725.059 842.898 725.481C842.162 725.903 841.303 726.08 840.322 726.013C841.544 726.958 841.965 728.076 841.583 729.367C841.224 730.582 840.43 731.411 839.201 731.855C837.972 732.298 836.462 732.255 834.672 731.726L828.246 729.829ZM834.933 723.358L838.271 724.343C839.217 724.623 840.012 724.663 840.654 724.463C841.297 724.264 841.715 723.838 841.907 723.186C842.206 722.176 841.613 721.452 840.13 721.014L836.946 720.073L834.933 723.358ZM831.741 728.588L835.616 729.732C836.562 730.011 837.358 730.045 838.005 729.833C838.664 729.624 839.09 729.194 839.283 728.542C839.43 728.043 839.334 727.591 838.995 727.185C838.657 726.779 838.123 726.468 837.394 726.253L833.807 725.194L831.741 728.588ZM847.98 735.657L849.675 732.883L843.153 730.957L843.419 729.138L855.56 723.194L857.843 723.868L853.009 731.762L854.927 732.328L853.837 734.113L851.919 733.546L850.224 736.32L847.98 735.657ZM846.487 729.836L850.765 731.099L853.784 726.173L846.487 729.836ZM853.163 740.086L852.829 738.111C855.088 737.805 856.935 737.106 858.369 736.015C859.804 734.923 860.75 733.603 861.207 732.056C861.754 730.202 861.441 728.156 860.267 725.919L862.142 724.866C863.893 727.455 864.382 730.061 863.608 732.682C863 734.741 861.786 736.426 859.967 737.738C858.16 739.053 855.892 739.836 853.163 740.086Z" fill="#BFDBCC"/>
<mask id="mask0_2019_91" style="mask-type:luminance" maskUnits="userSpaceOnUse" x="0" y="615" width="267" height="113">
<path d="M266.845 683.301L11.9439 615L-2.08858e-05 659.575L254.901 727.876L266.845 683.301Z" fill="white"/>
</mask>
<g mask="url(#mask0_2019_91)">
<path d="M11.0527 644.652C10.1104 644.399 9.25236 643.986 8.56987 643.414C8.04325 642.969 7.96877 642.148 8.40422 641.574C8.83968 641 9.62325 640.9 10.1477 641.341C11.6933 642.639 14.858 642.68 16.7916 641.418C17.8267 640.746 18.3595 639.809 18.3845 638.628C15.6809 638.214 8.3166 636.773 7.45133 633.22C7.2057 632.211 7.35807 630.649 9.4837 628.955C10.3574 628.259 11.9564 627.62 14.6098 628.553C17.9726 629.732 21.6508 632.937 22.1818 635.15C22.3467 635.847 21.9465 636.572 21.283 636.768C21.0526 636.836 20.8235 636.828 20.6079 636.771C20.6784 636.897 20.7265 637.037 20.7522 637.189C21.2093 639.867 20.2209 642.22 18.0391 643.64C16.0552 644.935 13.3087 645.26 11.0489 644.654L11.0527 644.652ZM10.9384 631.029C10.194 631.621 9.78025 632.185 9.85592 632.493C10.2493 634.109 16.4731 635.837 19.6924 636.158C19.7664 636.165 19.8389 636.178 19.912 636.201C19.8565 636.101 19.8131 635.991 19.7855 635.869C19.5499 634.882 16.7815 632.098 13.769 631.041C13.5868 630.976 11.4128 630.653 10.9421 631.027L10.9384 631.029Z" fill="#97C3AB"/>
<path d="M77.5826 661.377C77.3109 661.304 77.0631 661.13 76.8924 660.869C76.1137 659.663 75.3159 658.186 74.475 656.621C72.1413 652.298 69.2356 646.919 65.5476 645.44C64.9154 645.189 64.6143 644.434 64.8757 643.753C65.1364 643.076 65.8706 642.734 66.4902 642.986C70.9754 644.786 74.1135 650.598 76.6357 655.269C77.4544 656.786 78.2284 658.222 78.9536 659.344C79.3309 659.933 79.1785 660.75 78.6098 661.171C78.2944 661.403 77.9202 661.464 77.5805 661.373L77.5826 661.377Z" fill="#97C3AB"/>
<path d="M62.2755 658.184C62.0155 658.114 61.7772 657.952 61.6084 657.708C61.2116 657.133 61.3434 656.31 61.9004 655.873C65.4075 653.112 70.3519 651.024 74.7144 649.182C76.3649 648.481 77.9241 647.826 79.3261 647.166C79.9594 646.87 80.6822 647.162 80.9448 647.825C81.2052 648.483 80.9021 649.26 80.2718 649.557C78.8264 650.236 77.2455 650.902 75.5704 651.612C71.3573 653.392 66.5772 655.411 63.3393 657.959C63.0191 658.209 62.63 658.279 62.2784 658.185L62.2755 658.184Z" fill="#97C3AB"/>
<path d="M80.1306 669.319C79.8736 669.25 79.6404 669.093 79.4709 668.851C79.0695 668.281 79.1916 667.459 79.7443 667.015C81.9333 665.262 84.8007 663.127 87.7639 661.781C86.014 661.341 84.1272 660.962 83.4798 661.216C83.0972 661.734 82.4075 661.897 81.8737 661.574C81.2876 661.22 81.0993 660.423 81.4556 659.79C82.6273 657.698 86.269 658.569 91.2956 660.027C91.9504 660.218 92.5313 660.389 92.9856 660.502C93.6241 660.647 93.9663 661.249 93.8864 661.902C93.8072 662.552 93.2861 663.055 92.6677 663.082C88.9018 663.241 84.3212 666.583 81.2006 669.084C80.8788 669.339 80.4851 669.414 80.1306 669.319Z" fill="#97C3AB"/>
<path d="M115.763 669.693C115.059 669.567 114.512 669.139 114.433 668.593C114.333 667.875 115.077 667.218 116.091 667.125C118.908 666.865 122.28 667.556 125.537 668.227C126.453 668.414 127.351 668.601 128.188 668.751C129.17 668.928 129.736 669.638 129.456 670.338C129.176 671.038 128.156 671.465 127.174 671.289C126.298 671.131 125.365 670.938 124.405 670.743C121.64 670.174 118.508 669.532 116.45 669.722C116.215 669.743 115.979 669.732 115.763 669.693Z" fill="#97C3AB"/>
<path d="M113.571 675.195C112.88 675.07 112.344 674.664 112.249 674.134C112.118 673.42 112.835 672.748 113.844 672.632C116.732 672.302 120.448 673.088 123.721 673.78C124.725 673.996 125.696 674.199 126.585 674.359C127.567 674.535 128.133 675.245 127.853 675.948C127.572 676.651 126.553 677.075 125.571 676.899C124.589 676.722 123.619 676.516 122.562 676.292C119.664 675.679 116.373 674.986 114.312 675.217C114.055 675.247 113.804 675.237 113.571 675.195Z" fill="#97C3AB"/>
<path d="M239.19 717.567C238.564 717.399 238.178 716.736 238.324 716.05C238.476 715.34 239.139 714.875 239.805 715.012C240.459 715.146 241.132 714.963 241.862 714.449C245.116 712.158 247.907 704.506 248.612 701.108C249.806 695.352 250.76 687.433 248.504 682.393C248.214 681.749 248.483 680.96 249.102 680.635C249.722 680.304 250.459 680.568 250.746 681.211C252.797 685.785 252.891 692.642 251.027 701.594C250.302 705.082 247.323 713.706 243.187 716.618C241.891 717.531 240.566 717.857 239.254 717.587C239.233 717.582 239.21 717.576 239.186 717.569L239.19 717.567Z" fill="#97C3AB"/>
<path d="M149.216 694.165C149.853 694.281 150.483 693.861 150.641 693.198C150.803 692.512 150.399 691.826 149.738 691.666C149.089 691.509 148.558 691.065 148.114 690.308C146.136 686.932 146.842 679.051 147.64 675.775C148.991 670.227 151.473 662.882 155.645 659.411C156.179 658.968 156.27 658.163 155.847 657.618C155.425 657.067 154.646 656.989 154.115 657.433C150.325 660.581 147.343 666.554 145.248 675.186C144.431 678.549 143.484 687.362 145.998 691.653C146.786 692.998 147.848 693.841 149.149 694.156C149.17 694.16 149.194 694.164 149.218 694.168L149.216 694.165Z" fill="#97C3AB"/>
<path d="M38.5264 654.239C38.296 654.177 37.6705 653.924 37.5684 652.982C37.5507 652.8 38.2902 649.496 38.5587 647.868C39.156 644.245 39.7798 640.499 42.2819 637.636C42.5603 637.318 42.9643 637.157 43.3655 637.208C43.7667 637.258 44.1096 637.515 44.2872 637.891C44.6024 638.558 44.6274 639.41 44.6481 640.16L44.6529 640.272C44.6749 640.994 44.137 641.619 43.4537 641.664C43.1856 641.684 42.9332 641.61 42.7241 641.468C41.7904 643.441 41.4014 645.79 40.9953 648.239C40.8085 649.373 40.6147 650.534 40.3606 651.66C40.3744 651.679 40.3844 651.701 40.3981 651.72C40.7166 652.281 40.5782 653.01 40.0973 653.422C40.0829 653.44 40.0706 653.463 40.0562 653.481C39.6366 654.125 39.1279 654.381 38.5471 654.245L38.5205 654.238L38.5264 654.239Z" fill="#97C3AB"/>
<path d="M45.6263 649.566C45.3634 649.495 45.1221 649.332 44.955 649.082C43.7824 647.349 33.6706 645.457 32.7607 645.213C32.102 645.036 31.7223 644.327 31.9106 643.624C32.099 642.921 32.7827 642.496 33.4414 642.673C34.2656 642.893 45.2507 644.953 46.9835 647.514C47.3766 648.091 47.2389 648.912 46.6789 649.348C46.3633 649.592 45.9749 649.659 45.6293 649.567L45.6263 649.566Z" fill="#97C3AB"/>
<path d="M160.257 686.22L171.356 671.491L173.674 672.01L177.447 690.073L174.988 689.522L171.741 672.954L172.678 673.164L162.67 686.761L160.257 686.22ZM164.338 682.83L165.39 681.099L174.617 683.167L174.876 685.192L164.338 682.83ZM178.3 690.264L178.657 688.672L186.775 683.728C187.494 683.298 188.041 682.905 188.417 682.546C188.812 682.175 189.096 681.821 189.27 681.483C189.463 681.133 189.598 680.786 189.675 680.442C189.864 679.599 189.717 678.869 189.232 678.252C188.747 677.635 187.935 677.199 186.795 676.944C185.921 676.748 185.099 676.719 184.33 676.858C183.564 676.982 182.856 677.29 182.204 677.784L180.921 676.045C181.724 675.389 182.696 674.967 183.837 674.78C184.996 674.581 186.208 674.623 187.473 674.907C188.613 675.162 189.562 675.572 190.321 676.135C191.084 676.683 191.614 677.352 191.913 678.14C192.228 678.932 192.28 679.796 192.07 680.733C191.951 681.264 191.763 681.771 191.507 682.255C191.251 682.739 190.863 683.226 190.344 683.716C189.824 684.206 189.117 684.728 188.222 685.282L180.987 689.686L180.63 688.647L190.536 690.867L190.08 692.905L178.3 690.264ZM203.069 680.518L199.485 681.584L199.584 681.139L202.37 683.632L201.356 684.758L198.669 682.261L198.963 682.155L198.204 685.65L196.799 685.335L197.605 681.851L197.826 682.073L194.33 683.183L193.893 681.732L197.5 680.671L197.4 681.116L194.591 678.617L195.611 677.469L198.293 679.988L197.998 680.094L198.757 676.6L200.162 676.915L199.357 680.399L199.136 680.177L202.637 679.043L203.069 680.518ZM202.717 695.737L206.391 679.344L213.745 680.992C215.634 681.416 217 682.124 217.843 683.116C218.69 684.093 218.967 685.237 218.673 686.549C218.473 687.439 218.102 688.142 217.56 688.66C217.033 689.182 216.397 689.531 215.652 689.709C214.908 689.886 214.145 689.887 213.364 689.712L213.943 689.104C214.88 689.314 215.671 689.663 216.315 690.152C216.96 690.641 217.421 691.253 217.699 691.987C217.981 692.706 218.017 693.534 217.807 694.471C217.492 695.876 216.716 696.85 215.479 697.393C214.262 697.923 212.615 697.956 210.538 697.49L202.717 695.737ZM205.484 694.365L210.87 695.573C212.166 695.863 213.206 695.867 213.991 695.583C214.776 695.3 215.274 694.69 215.484 693.754C215.697 692.801 215.509 692.029 214.92 691.438C214.331 690.847 213.389 690.406 212.093 690.116L206.496 688.861L206.921 686.964L211.933 688.088C213.119 688.354 214.09 688.342 214.843 688.051C215.597 687.761 216.072 687.179 216.268 686.305C216.464 685.43 216.283 684.701 215.725 684.117C215.167 683.533 214.295 683.108 213.109 682.842L208.308 681.766L205.484 694.365ZM218.848 699.353L219.205 697.761L227.323 692.816C228.043 692.387 228.59 691.994 228.965 691.635C229.36 691.264 229.644 690.91 229.819 690.572C230.012 690.222 230.147 689.875 230.224 689.531C230.413 688.688 230.265 687.958 229.78 687.341C229.295 686.724 228.483 686.288 227.344 686.033C226.469 685.837 225.648 685.808 224.878 685.947C224.113 686.071 223.404 686.379 222.753 686.873L221.47 685.134C222.273 684.478 223.245 684.056 224.385 683.869C225.545 683.67 226.757 683.712 228.021 683.996C229.161 684.251 230.111 684.661 230.87 685.224C231.632 685.772 232.163 686.441 232.462 687.229C232.776 688.021 232.828 688.885 232.618 689.822C232.499 690.353 232.312 690.86 232.056 691.344C231.8 691.828 231.412 692.315 230.892 692.805C230.372 693.295 229.665 693.817 228.77 694.371L221.536 698.775L221.179 697.736L231.085 699.956L230.628 701.993L218.848 699.353Z" fill="#97C3AB"/>
</g>
</g>
<defs>
<clipPath id="clip0_2019_91">
<rect width="1564" height="749" fill="white"/>
</clipPath>
</defs>
</svg>
