<svg width="1297" height="812" viewBox="0 0 1297 812" fill="none" xmlns="http://www.w3.org/2000/svg">
<path d="M1295.66 769.811H0.838562V771.488H1295.66V769.811Z" fill="#E7E7E7"/>
<path d="M1295.66 729.294H0.838562V730.971H1295.66V729.294Z" fill="#E7E7E7"/>
<path d="M1295.66 688.778H0.838562V690.455H1295.66V688.778Z" fill="#E7E7E7"/>
<path d="M1295.66 648.262H0.838562V649.939H1295.66V648.262Z" fill="#E7E7E7"/>
<path d="M1295.66 607.745H0.838562V609.422H1295.66V607.745Z" fill="#E7E7E7"/>
<path d="M1295.66 567.229H0.838562V568.906H1295.66V567.229Z" fill="#E7E7E7"/>
<path d="M1295.66 526.713H0.838562V528.39H1295.66V526.713Z" fill="#E7E7E7"/>
<path d="M1295.66 486.196H0.838562V487.873H1295.66V486.196Z" fill="#E7E7E7"/>
<path d="M1295.66 445.68H0.838562V447.357H1295.66V445.68Z" fill="#E7E7E7"/>
<path d="M1295.66 405.164H0.838562V406.841H1295.66V405.164Z" fill="#E7E7E7"/>
<path d="M1295.66 364.647H0.838562V366.324H1295.66V364.647Z" fill="#E7E7E7"/>
<path d="M1295.66 324.131H0.838562V325.808H1295.66V324.131Z" fill="#E7E7E7"/>
<path d="M1295.66 283.615H0.838562V285.291H1295.66V283.615Z" fill="#E7E7E7"/>
<path d="M1295.66 243.098H0.838562V244.775H1295.66V243.098Z" fill="#E7E7E7"/>
<path d="M1295.66 202.582H0.838562V204.259H1295.66V202.582Z" fill="#E7E7E7"/>
<path d="M1295.66 162.065H0.838623V163.742H1295.66V162.065Z" fill="#E7E7E7"/>
<path d="M1295.66 121.549H0.838623V123.226H1295.66V121.549Z" fill="#E7E7E7"/>
<path d="M1295.66 81.0327H0.838623V82.7097H1295.66V81.0327Z" fill="#E7E7E7"/>
<path d="M1295.66 40.5164H0.838623V42.1933H1295.66V40.5164Z" fill="#E7E7E7"/>
<path d="M1218.02 0.838501H1216.35V811.166H1218.02V0.838501Z" fill="#E7E7E7"/>
<path d="M1100.31 0.838501H1098.63V811.166H1100.31V0.838501Z" fill="#E7E7E7"/>
<path d="M982.599 0.838501H980.922V811.166H982.599V0.838501Z" fill="#E7E7E7"/>
<path d="M864.889 0.838501H863.212V811.166H864.889V0.838501Z" fill="#E7E7E7"/>
<path d="M747.179 0.838501H745.502V811.166H747.179V0.838501Z" fill="#E7E7E7"/>
<path d="M629.466 0.838501H627.789V811.166H629.466V0.838501Z" fill="#E7E7E7"/>
<path d="M511.756 0.838501H510.079V811.166H511.756V0.838501Z" fill="#E7E7E7"/>
<path d="M394.047 0.838501H392.37V811.166H394.047V0.838501Z" fill="#E7E7E7"/>
<path d="M276.337 0.838501H274.66V811.166H276.337V0.838501Z" fill="#E7E7E7"/>
<path d="M158.627 0.838501H156.95V811.166H158.627V0.838501Z" fill="#E7E7E7"/>
<path d="M40.9136 0.838501H39.2366V811.166H40.9136V0.838501Z" fill="#E7E7E7"/>
</svg>
